<?xml version="1.0" encoding="UTF-8"?>
<svg id="Layer_1" xmlns="http://www.w3.org/2000/svg" version="1.1" viewBox="0 0 1920 1081">
  <!-- Generator: Adobe Illustrator 29.4.0, SVG Export Plug-In . SVG Version: 2.1.0 Build 152)  -->
  <defs>
    <style>
      .st0 {
        fill: #e90276;
      }

      .st1 {
        fill: #e80177;
      }

      .st2 {
        fill: #e60078;
      }
    </style>
  </defs>
  <path class="st0" d="M1047.14,646.68c-7.32-2.52-14.17-1.4-20.47,2.93-6.7,4.61-13.23,9.48-20.02,13.96-1.69,1.11-4.1,1.12-6.17,1.64-.43-1.84-1.22-3.68-1.21-5.51.03-2.55.66-5.09,1.09-8.03-4.36.16-6.63,1.43-6.23,5.85.28,3.14.36,6.37-.02,9.49-.54,4.4,1.58,6.87,5.46,7.19,5.43.45,11,.58,16.39-.09,5.51-.69,8.72-4.68,10.22-9.97,1.01-3.58,1.79-7.26,3.18-10.7.63-1.54,2.48-2.59,3.78-3.86,1.34,1.41,3.32,2.61,3.86,4.28.89,2.75.29,6.01,1.32,8.67,1.27,3.28,2.83,7.3,5.53,9.01,7.36,4.68,9.48,11.15,8.24,19.03-1.2,7.63-6.27,12.82-13.34,14.79-7.78,2.18-15.93,3.56-24,4.04-11.29.66-22.68.61-33.98-.02-5.7-.31-11.72-1.67-16.84-4.12-7.02-3.37-9.6-10.31-9.72-17.88-.17-11.15-.04-22.3-.04-33.72-4.96.25-7.41,2.71-7.99,7.2-2.91,22.27-14.4,38.1-35.99,44.96-12.47,3.96-25.56,5.97-38.43,8.6-1.32.27-4.29-1.28-4.29-1.99,0-1.96.59-4.56,1.95-5.78,5.87-5.23,12.31-9.82,18.14-15.08,8.44-7.63,12.24-17.82,14.57-28.65.19-.9.03-1.88.03-3.84-7.45,9.07-16.27,8.6-26.21,5.84,1.88,3.75,3.83,6.99,5.18,10.46,1.84,4.73.16,7.09-4.94,7.16-8.14.11-16.28.03-24.71.03v37.1c8.02-1.57,15.89-3.28,23.83-4.54,1.83-.29,4.87.38,5.6,1.62.74,1.26-.06,4.43-1.29,5.66-4.74,4.74-9.93,9.04-15.23,13.76,20.56,6.46,41.49,3.78,63.53,4.51-1.05-9.97-1.74-19.41-3.14-28.74-.91-6.07-.73-6.43,5.24-5.56,7.14,1.04,14.38,1.34,21.54,2.22,9.88,1.21,19.77,2.48,29.58,4.17,1.86.32,4.35,2.49,4.74,4.21.38,1.68-1.42,3.97-2.54,5.82-.44.73-1.58,1.17-2.49,1.47-5.39,1.76-7.53,5.38-6.71,10.97.23,1.59-.13,3.26-.25,5.32,4.1,0,8.56.18,12.99-.11,1.42-.09,3-1.17,4.09-2.23,5.39-5.21,10.63-10.57,15.93-15.88,6.87-6.87,9.29-7.01,16.74-.81,8.32,6.93,16.76,13.73,24.76,21.01,1.71,1.55,2.54,5,2.26,7.4-.13,1.09-3.93,2.48-6.08,2.5-18.5.2-37,.11-55.49.11h-4.83c15.62,20.9,35.59,33.08,61,36.03,1.61.19,3.28.42,4.75,1.03,1.8.75,4.49,1.65,4.85,3.01.43,1.59-.68,4.73-2.06,5.5-13.74,7.68-15.9,21.38-18.58,34.82-.7,3.51-.74,7.17-1.62,10.63-1.36,5.35-3.34,6.23-8.09,3.65-14.09-7.64-24.58-18.92-32.33-32.82-9.31-16.69-14.73-34.63-17.04-53.56-.31-2.56-.94-5.08-1-7.61,0,11.1,0,22.21,0,33.31,0,1.33.06,2.67.06,4,0,14.83-.1,29.67.05,44.5.06,6.6.74,13.19.92,19.79.16,5.69-2.75,10.14-7.98,11.63-11.15,3.17-22.5,4.39-34,2.07-5.14-1.04-8.05-4.51-7.95-9.65.24-12.26.55-24.53,1-36.79.33-8.92.94-17.82,1.47-27.5-5.58,6.65-10.61,12.52-15.5,18.5-7.87,9.62-17.65,17.04-28.16,23.34-7.77,4.66-16.2,8.26-24.48,12.01-1.63.74-3.93,0-5.91-.06.24-2.17-.21-4.77.83-6.43,5.3-8.38,11.18-16.39,16.51-24.75,12.03-18.87,21.07-39.17,28.1-60.39.41-1.23.33-2.61.57-4.82-8.64.91-17.36,1.2-25.76,2.98-4.18.88-6.23-.47-7.56-3.3-2.02-4.31-3.29-8.98-4.87-13.46-2.48,1.75-5.57,3.4-7.93,5.78-1.39,1.41-2.27,3.97-2.26,6.01.19,29.6.77,59.19.71,88.79-.01,5.12-1.92,10.5-4.05,15.28-2.95,6.64-9.64,9.28-16.04,10.97-8.14,2.15-16.6,3.12-24.94,4.5-4.19.69-5.3-1.93-5.82-5.47-.95-6.44-1.68-12.97-3.41-19.21-2.07-7.42-6.04-13.74-14-16.43-1.22-.41-2.73-.95-3.37-1.91-1.04-1.59-2.02-3.6-1.93-5.38.05-.92,2.46-2.44,3.79-2.44,5.6.03,11.19.59,16.79.85,4.04.19,7.01-1.73,7.08-5.81.23-14.28.09-28.57.09-42.88-5.87.55-7.56,4.48-9.11,9-.63,1.85-2.61,3.94-4.43,4.53-2.85.93-4.97-.6-5.55-3.95-1.55-8.96-3.34-17.89-4.88-26.85-1.41-8.18-2.6-16.41-3.92-24.6-.53-3.26.73-4.52,4.06-4.46,8.12.15,16.24.05,24.6.05v-42.48c-5.65.67-11.29,1.04-16.8,2.09-4.01.77-6.69.1-8.03-3.98-.96-2.92-1.74-5.94-3.05-8.7-1.93-4.08-.14-5.41,3.52-4.88,8.04,1.17,16.03,2.68,24.35,4.11v-10.96c-1.46.28-2.8.67-4.16.77-8.24.61-10.15-1.2-11.66-9.46-1.37-7.49-3.33-14.88-4.94-22.33-.64-2.96-1.03-5.98-1.56-9.12-3.76,1.04-3.86,3.95-3.32,6.72.92,4.77,2.18,9.48,3.42,14.18,1.13,4.33.28,7.57-3.41,10.66-4.18,3.5-7.73,7.71-13.79,7.63-1.42-.02-2.84-.2-4.26-.31-.11-.42-.22-.84-.33-1.26,1.41-.9,2.75-1.95,4.25-2.67,7.14-3.44,8.17-6.56,4.78-13.7-3.47-7.31-6.79-14.7-9.99-22.13-.75-1.73-.77-3.78-1.08-5.41-7.01-1.39-13.98-2.78-21.15-4.2.16-.26-.16.04-.1.19,4.27,11.3,5.41,11.2-9.58,22.38-4.6,3.43-7.3,6.92-8.86,11.99-.42,1.35-1.22,2.58-1.98,4.14,2.31,2.81,5.79,5.63,3.18,9.77,1.67,1.98,3.51,4.17,5.47,6.49-7.7,4.06-22.5,1.1-26.6-5.26-1.05-1.63-.61-4.63-.06-6.8.97-3.84,3.29-7.09-.6-11.18-2.37-2.48-2.76-6.8,2.29-8.69,1.46-.55,3.01-1.65,3.83-2.94.89-1.38,1.79-3.59,1.28-4.89-5.77-14.83-8.62-29.5.82-44.03.4-.62.31-1.6.35-2.42.19-3.85,3.37-5.69,6-5.13,11.25,2.4,21.74-1.51,32.33-3.54,10.44-2,20.64-5.44,30.78-8.76,4.05-1.32,7.62-4.06,11.48-6.02,7.25-3.69,18.89-1.27,23.69,4.97.67.87,1.21,2.41.91,3.36-1.26,4.03.33,7.04,2.62,10.15,3.3,4.49,2.8,12.5-1.02,16.18-1.01.97-2.91,1.22-4.45,1.4-4.84.55-9.03,1.56-9.55,7.64-.8,9.29-2.12,18.55-2.68,27.86-.45,7.47-.19,15-.06,22.49.1,6.16,1.25,7.14,8.46,6.86-.64-18.39-1.28-36.8-1.95-56.01,7.08.44,14.46.6,21.75,1.42,8.58.96,17.1,2.49,25.65,3.78,2.42.36,5.09.23,7.18,1.26,1.94.96,4.03,2.91,4.68,4.88.96,2.9.26,5.98-3.44,7.12-.3.09-.54.47-.84.53-7.48,1.41-9.12,6.05-8.71,13.21.65,11.38.17,22.82.17,33.93,2.12-3.4,3.86-8.32,7.31-11.24,4.83-4.08,3.76-9.67,5.89-14.28,2.1-4.54,5.01-9.69,9.04-12.15,8.81-5.35,14.84-11.44,13.88-22.5-.1-1.17,1.42-3.53,2.18-3.53,1.74.01,4.19.64,5.08,1.91,2.5,3.58,4.9,7.42,6.29,11.52,1.01,2.97,2.44,3.35,4.97,3.35,28.83-.04,57.66-.11,86.49.03,6.97.03,11.67-3.45,16.2-8.75.86-.31,1.27-.31,1.99-.35.77-.68,1.23-1.32,1.98-2.1,1.77-1.05,3.23-1.95,5.02-2.9.77-.68,1.23-1.32,2.05-1.95,2.79,1.33,5.21,2.67,7.67,4.32.68.77,1.32,1.23,2.25,1.82,1.43,1.05,2.57,1.95,3.75,3.18.68.77,1.32,1.23,2.26,1.82,3.1,2.71,5.9,5.29,8.73,8.2,2.01,2.11,3.99,3.89,6.21,5.82.42.72.58,1.28.79,2.19,1.01,1.79,1.99,3.21,2.96,5.06,0,1.81,0,3.19-.32,4.62-.77.68-1.23,1.32-1.79,2.18-.31.49-.57.68-1.25.82-1.79,1.01-3.21,1.99-4.65,3.24-.02.47-.02.65-.03.84M999.99,642.88c.49.43.98.86,2.1,1.85.84-5.29,1.59-10.02,2.36-14.91h-97.4c.6,2.45,1.12,4.59,1.53,6.24,15.1,2.32,29.71,4.57,44.47,6.84.09-1.92.2-4,.35-7.11,9.91,1.12,19.36,1.99,28.74,3.31,5.76.81,11.42,2.3,17.85,3.79Z"/>
  <path class="st0" d="M609.14,372.51c3.65-8.93,2.62-17.71-.81-26.42-1.07-2.72-2.51-5.37-3.02-8.19-.33-1.87.69-3.98,1.11-5.98,1.76.56,4.06.61,5.18,1.78,3.72,3.92,7.29,8.05,10.39,12.46,4.19,5.97,7.88,12.29,11.9,18.64.09-.83.3-1.81.28-2.77-.31-13.93-.36-27.87-1.13-41.78-.31-5.61-2.06-11.16-3.42-16.67-1.88-7.64.3-10.19,8.06-8.98,12.56,1.96,25.12,3.97,37.67,5.97,2.06.33,4.12.74,6.18,1.11,1.56-8.02,1.52-7.76,10.56-6.25,9.99,1.66,20.07,2.73,30.1,4.16,4.19.6,8.58.86,12.42,2.41,2.3.93,5.17,4.06,5.15,6.17-.02,2.15-2.91,5.49-5.18,6.16-5.88,1.73-7.54,5.16-7.47,10.87.22,18.49.08,36.99,1.15,55.86,2.31-6.83,4.98-13.56,6.84-20.51,2.09-7.83,3.45-15.86,5.13-23.79.9-4.25,4.76-5.96,7.59-2.95,10.85,11.55,21.51,23.28,32.07,35.1,1.28,1.44,2.28,3.9,2.08,5.74-.46,4.12-4.05,4.88-7.11,3.8-6.89-2.44-11.48.93-16.83,4.52-9.01,6.06-18.74,11.05-28.06,16.66-1.23.74-2.58,2.43-2.66,3.75-.31,5.14-.13,10.31-.13,14.29,10.57,4.77,20.98,8.51,30.4,13.96,15.09,8.73,18.14,21.48,14.42,37.48-.77,3.33-3.77,6.15-5.75,9.21,4.4-.67,5.09,2.09,5.04,6.35-.08,6.91.18,13.88,1.07,20.73.33,2.55,2.48,5.18,4.42,7.15,7.58,7.68,11.53,21.73,4.72,32.33-5.23,8.15-12.89,11.98-22.02,12.57-12.4.8-24.85,1.05-37.28,1.01-6.18-.02-12.45-.8-18.52-2-10.47-2.06-18.12-10.48-18.39-21.04-.45-17.68-.22-35.37-.1-53.06.27-41.93.74-83.85.92-125.78.05-11.76-.54-23.53-.99-35.29-.1-2.74-.83-5.46-1.27-8.16-8.45,3.04-8.68,3.36-8.68,12.22,0,26.16.11,52.33-.04,78.49-.09,14.6-.13,29.22-1.08,43.78-1.27,19.52-3.14,39-10.83,57.4-8.56,20.48-22.03,36.62-41.56,47.3-10.27,5.62-20.97,10.43-32.7,12.28-1.41.22-3.46.32-4.25-.48-.75-.76-.8-3.13-.15-4.15,1.25-1.97,3.12-3.6,4.89-5.18,21.75-19.42,36.09-42.91,39.71-72.27,1.44-11.7,2.69-23.41,4-35.13.12-1.04.02-2.1.02-2.4-6.26,13.11-12.83,26.63-19.13,40.28-1.18,2.56-1.01,5.73-1.95,8.44-.73,2.08-1.8,4.82-3.49,5.61-2.82,1.3-5.35-.13-6.39-3.5-3.96-12.85-8.04-25.67-11.98-38.53-1.14-3.71-2.36-7.47-2.73-11.28-.13-1.36,1.91-3.39,3.44-4.3,1.17-.7,3.1-.14,5.81-.14-15.07-4.78-15.19-14.29-11.99-28.02,1.89-8.14,1.97-15.74-4.35-22.96-.09,1.65-.22,2.84-.22,4.03-.01,26.83-.14,53.66.03,80.49.14,22.6.61,45.19,1,67.79.03,1.77.68,3.52.93,5.29,1.41,9.99-4.13,15.86-15.76,16.33-6.68.26-13.39.36-20.06-.04-6.96-.42-9.39-3.95-9.25-9.48.57-23.76.71-47.52,1.15-71.28.08-4.51.82-9,1.29-13.8-7.84,9.15-15.23,17.79-22.63,26.42-.43.5-.86,1.15-1.43,1.38-2.29.92-4.63,1.7-6.95,2.53-.09-2.25-.81-4.69-.19-6.71,5.89-19.21,12.71-38.16,17.85-57.56,4.03-15.2,6.13-30.92,8.98-46.43.94-5.1,1.53-10.26,2.44-16.42-5.65.69-10.53.93-15.25,1.95-8.1,1.74-9.66,1.1-12.12-6.77-1-3.22-1.72-6.54-2.84-10.88,11.04,1.53,21.1,2.92,31.79,4.4,0-2.36.08-4.31-.01-6.26-.89-18.61,2.32-37.42-2.91-55.83-1.2-4.22,1.32-5.77,5.32-5.16,15.31,2.32,30.65,4.5,45.89,7.19,2.13.37,4.86,2.96,5.47,5.06.99,3.4-1.51,6.1-4.95,6.63-5.97.93-7.05,4.54-6.89,9.81.28,9.49.08,18.99.08,29.82,2.48-5.19,4.37-9.32,6.41-13.36,2.41-4.77,5.29-5.12,7.75-.45,4.7,8.89,8.92,18.04,13.14,27.17.72,1.55.49,3.53.29,5.74-2.49.75-4.56,1.32-6.65,1.35-7.26.11-14.53.04-21.8.04-.35.47-.69.93-1.04,1.4,1.28,1.69,2.35,3.64,3.9,5.02,2.3,2.05,5.07,3.56,7.42,5.57,4.83,4.12,9.5,8.42,14.18,12.59,0-3.03-.45-5.98.09-8.73,1.13-5.69,2.8-11.27,4.25-16.9M609.01,436.57c7.81-4.27,15.66-8.47,23.39-12.88.92-.52,1.67-2.14,1.7-3.27.17-5.75.08-11.51.08-18.33-7.22,8.2-14.94,9.7-24.19,4.47.56,2.28,1.14,3.94,1.37,5.66,1.14,8.29,2.82,16.69-4.33,24.06-.16.34-.31.67-.47,1.01.56-.22,1.12-.44,2.44-.73M744.71,478.66c-.58-.28-1.27-.45-1.73-.86-6.36-5.75-7.61-13.31-7.85-21.4-.25-8.41-1.42-16.66-6.93-23.16,0,25.12-.08,50.3.19,75.47.02,1.67,2.5,4.26,4.3,4.75,3.56.98,7.44,1,11.19,1.04,7.61.09,12.08-2.91,14.21-10.25,2.33-8,4.03-16.19,6.13-24.8-6.89,2.29-13,3.67-19.5-.8Z"/>
  <path class="st0" d="M867.07,487.6c-15.02,8.95-30.94,15.73-47.92,19.94-6.3,1.56-12.58,3.28-18.97,4.31-2.13.34-4.56-1.23-6.86-1.93,1.03-1.8,1.67-4.05,3.15-5.33,8.92-7.75,18.03-15.28,27.07-22.89,15.45-13.01,27.85-28.67,38.55-45.65,11.8-18.72,20.08-38.95,24.06-60.79,1.9-10.42,3.37-20.91,5-31.38.15-.94.02-1.91.02-3.32-11.32,0-22.28-.02-33.24,0-15.17.04-30.36-.4-45.36,2.83-1.81.39-5.22-.77-5.91-2.18-2.49-5.09-4.14-10.59-5.55-16.56,30.28,7.01,60.47,2.63,90.99,4.16,2.36-28.91,4.22-57.28-1.45-86.54,9.14.5,17.51.75,25.83,1.49,7.15.64,14.26,1.8,21.37,2.81,6.78.96,13.62,1.69,20.26,3.23,1.98.46,4.25,3.07,4.87,5.15.97,3.23-.74,5.96-4.16,7.36-10.65,4.33-10.51,4.36-10.67,15.91-.2,14.1-.59,28.19-1.01,42.28-.08,2.53-.69,5.04-1.12,8.05,15.86,0,31.2.62,46.42-.44,3.76-.26,7.4-5.76,10.62-9.29,4.97-5.44,9.59-11.2,14.23-16.94,2.72-3.36,5.88-2.94,8.71-.85,4.48,3.31,8.71,6.98,12.82,10.74,6.36,5.8,12.57,11.79,18.78,17.75,1.05,1.01,2.01,2.2,2.67,3.49,2.57,5,1.08,7.54-4.35,7.55-30.33.01-60.65,0-90.98,0h-6.74c3.74,10.92,6.85,21.27,10.8,31.29,6.85,17.4,17.06,32.72,30.65,45.62,16.26,15.43,35.68,25.41,56.92,32.06,2.79.87,5.79,1.24,8.38,2.49,1.7.82,3.76,2.69,3.97,4.3.2,1.6-1.32,4.47-2.78,5.06-13.07,5.3-16.85,16.82-19.93,28.86-1.41,5.49-2.66,11.03-3.99,16.54-1.41,5.79-4.48,7.46-9.61,4.42-8.37-4.96-16.45-10.4-25.15-15.92-2.77-2.62-5.01-5.01-7.34-7.31-12.57-12.37-22.2-26.81-30.09-42.88-1.69-3.88-3.49-7.34-4.79-10.98-9.15-25.59-13.97-52.06-16.07-79.09-.37-4.81-1.01-9.6-1.53-14.4-1.54.52-2.26,1.37-2.42,2.31-1.72,10.43-3.33,20.88-5.03,31.32-3.23,19.82-9.07,38.76-18.98,56.35-1.81,3.2-3.28,6.59-5.22,10.04-1.61,1.63-2.93,3.09-4.19,4.6-5.06,6.1-9.49,12.87-15.27,18.17-9.35,8.56-19.58,16.16-29.44,24.17Z"/>
  <path class="st0" d="M1134.23,294.45c12.95,1.71,25.9,3.4,38.84,5.12,2.26.3,4.77.17,6.7,1.15,2.09,1.06,4.35,2.89,5.22,4.94,1.13,2.66-.36,5.07-3.39,6.14-1.07.38-1.96,1.28-3.03,1.6-4.53,1.36-6.81,4.13-6.43,9.03.22,2.79.04,5.61.04,9.83,4.1-4.56,7.35-8.33,10.77-11.93,3.33-3.49,8.75-4.02,12.37-1.04,6.97,5.74,13.95,11.5,20.59,17.6,6.12,5.62,6.08,9.41-.65,13.83-5.53,3.64-7.5,7.98-7.22,14.43.29,6.57-.85,13.19-.8,19.78.12,14.6.61,29.19.93,43.78.08,3.84.24,7.69.06,11.52-.2,4.22-3.35,5.96-6.81,7.34-9.32,3.7-19.08,3.81-28.76,2.81-5.69-.59-8.39-4.99-8.7-10.68h-30.16v56.32c11.23-1.93,21.68-3.72,33.6-5.77-3.83-9.42-7.35-18.21-11.01-26.94-.81-1.94-2.4-3.57-3.05-5.54-.56-1.67-1.05-4.49-.2-5.24,1.17-1.03,3.93-1.31,5.5-.66,21.19,8.72,40.05,20.9,50.77,41.8,6.91,13.49,8.58,28.21-1.25,41.76-4.66,6.42-11.87,9.14-19.2,8.77-8.69-.44-16.15-4.69-18.74-13.89-1.57-5.59-2.18-11.46-2.98-17.24-.33-2.38-.05-4.84-.05-7.67-7.66,5.45-14.42,11.1-21.94,15.43-14.07,8.1-28.52,15.57-42.95,23.02-4.47,2.31-7.4,4.81-7.31,10.4.04,2.4-1.56,6.2-3.42,6.98-4.16,1.76-6.82-1.63-8.08-5.2-2.47-7.03-4.61-14.18-6.67-21.34-2.78-9.65-5.23-19.41-8.12-29.03-1.07-3.55.42-4.15,3.29-4.14,5.23.02,10.46,0,15.68,0,.57-7.66,1.43-14.05,1.45-20.44.13-39.82.39-79.65-.12-119.47-.17-13.38-2.36-26.75-3.82-40.1-.48-4.36,1.44-6.19,5.96-4.48,10,3.79,19.89,7.87,29.82,11.84,1.47.59,2.9,1.26,4.86,2.12.9-11.79.62-22.81-2.32-34.19,3.8-1.18,7.26-1.79,10.72-2.4M1136.86,388.56c-1.22.65-3.5,1.27-3.51,1.94-.21,12.25-.16,24.5-.16,36.76h31.99v-38.7c-9.46,0-18.41,0-28.32,0M1157.61,376.56h7.24v-31.65h-31.07v31.65h23.83Z"/>
  <path class="st0" d="M1296.51,412.29c15.3,11.37,29.38,23.57,36.83,41.19,3.16,7.48,4.88,15.88,5.58,24.01.68,7.94.45,16.38-1.52,24.05-3.89,15.15-15.56,23.54-29.48,28.91-4.81,1.86-9.95,2.9-15.01,4.02-3.89.87-6.15-1.39-6.78-5.62-.89-5.95-1.68-11.97-3.27-17.75-2.13-7.76-5.27-10.83-15.69-17.34v4.99c0,17.67-.15,35.33.08,52.99.07,5.69-2.72,9.16-7.47,10.69-10.59,3.4-21.52,4.11-32.44,1.7-4.89-1.08-7.3-4.44-7.2-9.66.4-21.59.84-43.19,1-64.79.42-53.93.79-107.85.93-161.78.02-8.69-1.26-17.38-1.89-26.08-.12-1.63-.02-3.27-.02-5.92,4.77,1.35,9.02,2.22,13.01,3.75,11.51,4.4,22.94,9,34.35,13.66,7.48,3.05,15.77,1.48,21.53-4.12,3.79-3.68,7.72-7.22,11.71-10.68,3.5-3.02,7.99-2.67,12.58.75,7.97,5.95,15.96,11.89,23.89,17.89,5.16,3.91,7.74,9.17,5.84,13.17-.98,2.07-3.14,4.53-5.16,4.97-4.71,1.04-7.98,3.4-10.36,7.39-10.48,17.58-22.73,33.86-36.24,49.22-2.72,3.09-5.32,6.28-8.4,9.92,4.36,3.36,8.81,6.8,13.57,10.45M1285.11,336.72c.25-3.24.5-6.48.75-9.79h-18.61c.19,52.74-2.73,105.11-.21,157.41,3.86.2,6.92-.03,9.79.58,7.83,1.67,14.52-2.2,16.32-9.96,1.7-7.35,2.47-14.58,1.22-22.3-2.91-17.91-10.22-33.44-22.32-46.86-.76-.85-1.29-2.47-1.06-3.56,4.5-21.59,9.13-43.16,14.13-65.53Z"/>
  <path class="st0" d="M1472.18,524.53v9.72h-34.31v-28.09c-7.64,6.12-11.87,13.77-13.61,22.68-1.91,9.79-1.71,19.49,1.86,29.02,3.77,10.07,11.73,14.79,20.66,15.51,13.14,1.07,26.29.33,38.47-5.79,1.93-.97,3.8-2.06,5.58-3.52-5.63-.34-10.63-1.05-14.98-5.13-5.48-5.15-6.69-11.29-5.33-18.01,1.52-7.52,6.61-12.58,14.02-13.99,14.18-2.71,28.32,5.96,26.45,22.8-1.14,10.27-7.39,17.81-16.4,23.04-11.76,6.83-24.57,9.38-37.94,9.77-14.17.41-28.28.08-41.8-4.97-13.33-4.98-24.03-12.72-26.87-27.7-3.43-18.14,1.67-32.5,15.99-44.21,8.63-7.06,18.47-12.1,29.25-15.12,4.74-1.33,2.54-4.37,1.94-7-1.68-7.47-7.09-11.59-13.33-9.76-7.91,2.32-14.28,7.13-19.57,13.39-11.64,13.79-17.48,30.71-24.96,46.72-1.42,3.04-3.14,3.96-6.04,3.66-10.26-1.05-20.51-2.14-31.83-3.33,14.01-29.21,27.82-58.01,42.03-87.65h-12.04c-5.33,0-10.67-.09-15.99.03-3.17.08-5.35-.1-5.39-4.37-.05-4.43,2.08-4.78,5.56-4.72,9.33.16,18.66-.07,27.99.13,3.01.07,4.65-.66,5.91-3.61,2.93-6.86,6.34-13.52,9.43-19.99,12.26.6,24.07,1.19,37.2,1.83-3.45,7.29-6.65,14.07-10.14,21.45,2.02.09,3.74.23,5.45.23,21.99.01,43.99,0,65.98,0q8.01,0,7.56,9h-5.26c-24.33,0-48.65.07-72.98-.07-3.43-.02-5.28.85-6.71,4.19-2.65,6.21-5.96,12.14-9.72,19.61,10.18-6.37,19.86-8.09,30.21-7.84,12.91.31,22.27,5.54,27.71,17.4.41.89.91,1.73,1.4,2.58.16.28.45.49.56.61,10.53-.83,20.94-1.9,31.37-2.41,8.01-.39,8.02-.08,7.32,8.43-7.19.5-14.4.97-21.6,1.5-3.93.29-7.86.59-11.78,1.06-2.44.29-3.6,1.65-3.38,4.36.77,9.34,1.37,18.7,2.03,28.54Z"/>
  <path class="st0" d="M1216.22,662.67v33.86h23.74v8.81h-23.63v44.21c-10.75,0-21.02.13-31.28-.21-1.01-.03-2.72-2.93-2.75-4.52-.23-12.82-.13-25.65-.13-39.27h-53v5.43c0,21.66-.05,43.31.02,64.97.06,19.87,12.62,30.74,31.71,31.63,13.47.63,26.55-.89,38.61-7.24,4.67-2.46,8.75-6.04,13.09-9.1-.16-.56-.33-1.13-.49-1.69-2.01,0-4.03-.14-6.02.02-7.78.64-17.01-5.48-17.77-17.12-.56-8.45,4.88-16.37,13.9-18.99,15.73-4.58,28.6,10.9,25.41,25.57-4.61,21.21-19.93,29.81-38.24,35.44-12.12,3.72-24.79,3.87-37.26,2.91-12.59-.97-25.14-2.72-36.43-9.54-10.46-6.32-16.79-15.3-19.46-26.99-.72-3.16-1.01-6.49-1.02-9.74-.09-21.64-.04-43.27-.04-65.4h-24c0-1.75.12-3.03-.02-4.28-.43-3.64.94-5.1,4.75-4.94,6.15.26,12.32.07,18.97.07v-43.57c8.15-.4,15.82-.77,24.13-1.04,4.26,1.24,9.81-.91,10.19,6.18-.02,13.04-.02,25.63-.02,38.05h52.83v-34.24c-2.65-1.91-6.47-3.4-6.47-4.91-.02-3.88,4.13-3.72,7.03-4.49.16-.04.33-.02.97-.02,3.9,0,7.33,0,11.22,0,7.1-.02,13.74-.05,20.54.3.42,3.54.67,6.69.93,9.84Z"/>
  <path class="st2" d="M970.13,445.45c7.78,15.74,17.4,30.18,29.97,42.55,2.33,2.29,4.57,4.68,6.99,7.35,2.79,17.92,1.35,34.88-7.82,50.61-1.3,2.23-2.7,4.41-4.53,7.41,4.44,4.21,8.92,8.63,13.64,12.79,1.07.94,2.99.86,4.45,1.43,4.43,1.74,9.87,2.48,13.07,5.54,16.62,15.85,32.75,32.22,48.87,48.59,7.69,7.8,6.27,23.16-5.16,28.97-7.61,3.87-16.26,2.5-22.32-3.69-.13-.5-.12-.69.26-1.16,1.8-1.28,3.22-2.28,4.64-3.28.32-.1.58-.29,1.21-.82.88-.9,1.33-1.54,1.79-2.18,0-1.39,0-2.78,0-4.95-1-2.21-2-3.63-3-5.05-.17-.56-.34-1.11-.79-2.18-2.26-2.28-4.23-4.05-6.21-5.82-2.8-2.57-5.6-5.14-8.74-8.18-.98-.92-1.62-1.37-2.26-1.82-1.14-.91-2.28-1.82-3.75-3.18-.97-.91-1.61-1.36-2.25-1.82-2.42-1.33-4.84-2.66-7.95-3.95-1.14.68-1.6,1.31-2.05,1.95-1.47.9-2.94,1.81-5.02,2.9-1.07.82-1.52,1.46-1.98,2.1-.41,0-.81,0-1.53,0-3.65-3.46-7.53-6.55-10.18-10.48-2.45-3.61-3.58-8.11-5.29-12.22-.89-2.15-1.3-4.71-2.75-6.38-3.68-4.26-7.81-8.12-11.81-12.19-11.86,7.87-24.24,12.62-38.38,13.45-18.38,1.08-34.66-3.62-49.09-14.76-15.89-12.27-24.33-28.6-27.2-48.49-1.51-10.41.52-20.11,2.17-30.47,9.81-8.42,20.05-16.02,29.4-24.58,5.79-5.3,10.22-12.08,15.27-18.17,1.26-1.52,2.58-2.97,4.59-4.6,11.55-3.2,22.55-4.37,33.58-1.64,6.84,1.69,13.46,4.26,20.18,6.43M926.98,564.55c4.09.33,8.24,1.28,12.26.89,14.77-1.42,27.67-7.04,37.8-18.25,16.26-18,19.87-42.66,7.92-63.82-10.59-18.75-32.32-32.09-56.61-27.89-15.62,2.7-28.19,10.1-37.09,23.07-8.2,11.96-11.81,25.13-9.21,39.88,2.23,12.67,8.01,22.98,17.19,31.87,7.66,7.43,16.89,11.39,27.73,14.25Z"/>
  <path class="st2" d="M1194.3,652.52c-3.43,0-6.86.02-10.61-.31.07-1.04.38-1.8.86-2.44,8.43-11.16,5.02-10.84-.67-20.1-3-4.88-5.46-10.08-7.95-14.73-12.14,2.68-25.37,5.6-38.79,8.56-.31,5.76-.21,11.73-1.07,17.57-.88,5.99-1.31,12.42-6.84,16.61-.4-6.63-5.94-4.48-9.83-5.92,4.8-1.7,6.35-5.07,5.86-10.14-.54-5.61-.5-11.27-.71-16.91-.71-.21-1.43-.42-2.14-.62-2.11,3.31-4.22,6.62-6.63,10.41,3.36,1.18,5.31,1.86,7.22,2.54-.17,4.24-3.46,8.54-6.45,8.51-3.69-.04-8.63-5.2-9.48-8.34-2.72-10.02,2.95-17.33,7.19-25.25.99-1.85,1.17-4.54.74-6.64-1.07-5.21-2.88-10.28-4.09-15.47-1-4.29-3.53-6.41-7.77-7.29-6.25-1.29-9.06-4.38-9.9-10.42-.3-2.17-.33-4.27,2.93-4.64,3.73-.42,5.82-2.77,8.39-5.82,4.08-4.84,6.57-9.28,5.74-15.56-.1-.74,1.1-2.2,1.88-2.34.88-.17,2.43.5,2.89,1.28,3.47,5.94,8.38,8.65,15.29,7.58.55-.08,1.41.56,1.82,1.09,3.72,4.95,7.74,9.72,10.9,15.01,2.05,3.43,4.71,5.46,8.29,5.7,10.88.71,21.88,3.08,32.77-1.68-.58-6.31,1.41-11.65,7.25-15.26,8.44-5.22,19.93,2.31,21.8,10.59.88,3.89.93,7.49-1.66,10.96-.7.94-.17,3.07.23,4.53,1.73,6.38,4.27,12.61,5.31,19.09,2.38,14.82,3.82,29.78,6.09,44.61,1.24,8.07-.05,12.29-6.55,15.34-.62-3.1-.87-6.25-1.41-10.12-4.89-7.46-9.51-14.21-14.39-21.34-3,7.54-1.28,15.48-6.5,21.36M1199.72,568.67c-1.82.97-3.64,1.93-6.1,3.24,3.52.92,5.91,1.54,9.66,2.52-1.34-2.37-2.16-3.81-3.56-5.76Z"/>
  <path class="st2" d="M1134.07,294.14c-3.31.92-6.77,1.53-10.62,2.3-14.68-5.52-28.99-11.15-43.26-16.93-3.83-1.55-7.27-1.44-11.31,1.61,3.58,2.42,6.87,4.63,10.6,7.16.56-.35,1.74-1.1,3.51-2.22-.12,1.52-.19,2.4-.26,3.27,2.75,1.22,6.55-1.95,10.23,1.75-.04,0,1.3-.27,2.6-.53,1.68,4.53-13.48,5.92-19.29,2-2.81-1.9-5.46-4.02-8.7-5.87,1.22,4.92-4.17,10.7,2.83,15.07-1.08.48-1.98.88-3.08,1.37,1.4,1.6,2.75,3.15,4.34,4.96-.71.29-1.58.64-2.09.85.58,2.49,1.11,4.78,1.67,7.18-5.56-1-8.97-5.55-9.07-11.99-.08-5.38-.02-10.76-.02-16.82-6.43.48-11.47.91-16.52,1.22-3.96.25-7.22-1.03-10.14-3.95-1.56-1.56-4.06-2.33-6.27-3.04-12.18-3.95-23.96-8.65-32.85-18.37-3.62-3.96-7.79-6.38-13.07-6.99-.59-.07-1.18-.37-1.76-.34-1.37.05-2.73.23-4.1.36.61-1.42.95-3.07,1.88-4.23,2.29-2.85,4.4-6.28,7.42-8.04,5.34-3.1,10.18.66,14.95,2.83.88.4,1.53,1.27,2.39,1.74,5.47,3,9.83.76,10-5.42.11-3.92-.46-7.86-.9-11.78-.48-4.25,1.18-7.76,2.72-11.64,2.95-7.42,4.72-15.31,7.16-23.62.76,1.26,1.28,2.11,1.88,3.11.17-1.92.33-3.69.49-5.46l1.29-.42c.98,2.6,1.97,5.2,3.15,8.31,2.15-6.47,4.18-12.58,6.28-18.9,3.97,1.74,2.74,5.74,3.2,10.18,2.56-4.18,4.65-7.6,7.05-11.52,4.17,2.39,2.9,6.14,1.68,9.87.42.27.84.54,1.26.82,1.78-2.28,3.55-4.55,5.33-6.83.48.13.95.25,1.43.38v10.67c2.58-1.47,4.41-2.51,6.56-3.74,2.26,7.49-4.53,10.43-8.06,15.66,6.47-.3,12.22-.57,18.68-.86-1.14,6.76-7.5,5.67-11.23,8.74,4.77,2.23,9.27,4.24,13.67,6.46.99.5,1.81,1.66,2.27,2.7.12.28-1.37,1.27-2.06,1.88,2.27,1.71,4.21,3.59-.26,5.69-.66.31-.97,1.48-1.3,2.31-.5,1.31-.72,2.73-1.33,3.98-1.15,2.34-4.03,5.14-3.45,6.78,1.8,5.07-1.93,4.94-4.44,5.59-3.3.85-6.77,1.03-9.73,1.44,24.82,16.8,51.57,30.84,82.01,39.11-2.14.4-3.51.65-5.39,1,1,.44,1.43.63,2,1.12Z"/>
  <path class="st1" d="M1045.21,621.9c1.94,1.43,3.92,3.2,5.93,5.31-1.94-1.43-3.92-3.2-5.93-5.31Z"/>
  <path class="st1" d="M1052.22,629.92c.96,1.06,1.96,2.49,2.96,4.27-.97-1.06-1.95-2.49-2.96-4.27Z"/>
  <path class="st1" d="M1051.82,642.59c-1.06.96-2.49,1.96-4.27,2.96,1.06-.97,2.49-1.95,4.27-2.96Z"/>
  <path class="st1" d="M1034.22,611.88c.6.13,1.24.58,1.92,1.36-.6-.13-1.24-.58-1.92-1.36Z"/>
  <path class="st1" d="M1011.5,609.52c.13-.6.58-1.24,1.36-1.92-.13.6-.58,1.24-1.36,1.92Z"/>
  <path class="st1" d="M1028.22,606.88c.6.13,1.24.58,1.92,1.36-.6-.13-1.24-.58-1.92-1.36Z"/>
  <path class="st1" d="M1054.86,639.6c-.13.6-.58,1.24-1.36,1.92.13-.6.58-1.24,1.36-1.92Z"/>
  <path class="st1" d="M1018.5,604.52c.13-.6.58-1.24,1.36-1.92-.13.6-.58,1.24-1.36,1.92Z"/>
  <path class="st2" d="M977.2,492.68c5.17,9.36,5.33,18.76,1.94,28.24-4.14,11.58-10.88,20.88-23.7,23.84-3.15.73-6.71,1.39-9.73.65-9.3-2.28-18.55,1.63-27.86-.53-22.8-5.29-36.02-40.1-15.54-61.08,7.57-7.76,17.52-11.94,25.72-18.5,6.72-5.38,11.07-5.21,17.41.13,7.68,6.46,16.56,11.47,24.51,17.64,2.99,2.32,4.83,6.12,7.25,9.62M925.03,476.29c-11.19,8.94-14.5,21.05-12.55,34.49,1.55,10.7,9.02,20.73,14.76,21.95-.28-.5-.48-.92-.74-1.31-5.88-8.99-8.73-19.03-8.1-29.59.52-8.86,3.11-17.46,8.41-25.42.06-.45.11-.91.17-1.36-.48.26-.95.52-1.95,1.24Z"/>
</svg>